<?xml version="1.0" standalone="no"?>
<!DOCTYPE svg PUBLIC "-//W3C//DTD SVG 20010904//EN"
 "http://www.w3.org/TR/2001/REC-SVG-20010904/DTD/svg10.dtd">
<svg version="1.0" xmlns="http://www.w3.org/2000/svg"
 width="1568.000000pt" height="1550.000000pt" viewBox="0 0 1568.000000 1550.000000"
 preserveAspectRatio="xMidYMid meet">

<g transform="translate(0.000000,1550.000000) scale(0.100000,-0.100000)"
fill="#000000" stroke="none">
<path d="M4635 13484 c-386 -44 -739 -147 -1090 -319 -1040 -509 -1740 -1518
-1855 -2674 -14 -142 -14 -5840 0 -5982 99 -1000 636 -1895 1475 -2456 438
-294 946 -478 1485 -538 204 -22 5856 -22 6060 0 750 84 1424 402 1969 930
550 532 901 1254 986 2025 22 203 22 5857 0 6060 -62 563 -269 1113 -588 1560
-171 239 -429 515 -642 684 -421 335 -908 561 -1430 665 -321 64 -144 61
-3342 60 -2389 -1 -2929 -4 -3028 -15z m7253 -1359 c280 -94 464 -363 450
-655 -14 -276 -187 -504 -453 -596 -70 -25 -95 -28 -200 -29 -98 0 -134 4
-195 23 -208 65 -377 234 -442 442 -33 108 -33 285 1 385 29 88 86 186 146
253 48 54 156 131 221 158 149 62 323 69 472 19z m-3978 -1305 c871 -66 1657
-448 2233 -1085 779 -862 1055 -2053 732 -3165 -354 -1217 -1390 -2141 -2635
-2350 -219 -36 -315 -44 -560 -44 -245 0 -341 8 -560 44 -1354 228 -2441 1290
-2705 2643 -45 230 -58 373 -59 637 0 245 7 339 44 560 174 1034 847 1942
1791 2415 530 266 1140 389 1719 345z"/>
<path d="M7370 9481 c-427 -66 -800 -257 -1110 -570 -69 -69 -152 -161 -184
-204 -180 -243 -305 -525 -367 -835 -30 -151 -38 -479 -14 -646 123 -889 819
-1587 1704 -1710 146 -21 416 -21 562 0 881 122 1581 822 1703 1703 10 65 16
182 16 281 0 99 -6 216 -16 281 -122 881 -825 1584 -1702 1704 -154 21 -441
19 -592 -4z"/>
</g>
</svg>
