<?xml version="1.0" standalone="no"?>
<!DOCTYPE svg PUBLIC "-//W3C//DTD SVG 20010904//EN"
 "http://www.w3.org/TR/2001/REC-SVG-20010904/DTD/svg10.dtd">
<svg version="1.0" xmlns="http://www.w3.org/2000/svg"
 width="1849.000000pt" height="1849.000000pt" viewBox="0 0 1849.000000 1849.000000"
 preserveAspectRatio="xMidYMid meet">

<g transform="translate(0.000000,1849.000000) scale(0.100000,-0.100000)"
fill="#000000" stroke="none">
<path d="M13284 12910 c-86 -18 -182 -54 -2044 -773 -1048 -404 -3061 -1181
-4475 -1727 -1413 -545 -2606 -1007 -2649 -1026 -174 -75 -286 -166 -340 -277
-72 -147 9 -273 220 -342 176 -57 2380 -729 2394 -729 8 0 1208 751 2665 1669
1458 917 2674 1683 2704 1701 153 94 339 53 285 -63 -12 -23 -700 -659 -2148
-1982 -1172 -1071 -2146 -1960 -2164 -1977 l-34 -29 -92 -1180 c-51 -649 -91
-1182 -89 -1184 9 -11 159 32 225 64 146 72 233 148 798 695 304 294 557 535
561 535 5 0 517 -378 1140 -840 622 -462 1156 -855 1187 -872 127 -73 288
-118 395 -110 90 6 180 50 241 118 53 59 117 181 146 281 26 84 1555 7272
1577 7408 37 230 -16 413 -156 543 -94 88 -222 124 -347 97z"/>
</g>
</svg>
