<?xml version="1.0" standalone="no"?>
<!DOCTYPE svg PUBLIC "-//W3C//DTD SVG 20010904//EN"
 "http://www.w3.org/TR/2001/REC-SVG-20010904/DTD/svg10.dtd">
<svg version="1.0" xmlns="http://www.w3.org/2000/svg"
 width="992.000000pt" height="992.000000pt" viewBox="0 0 992.000000 992.000000"
 preserveAspectRatio="xMidYMid meet">

<g transform="translate(0.000000,992.000000) scale(0.100000,-0.100000)"
fill="#000000" stroke="none">
<path d="M4435 7253 c-248 -7 -498 -39 -605 -78 -66 -24 -134 -70 -190 -132
-58 -64 -66 -99 -22 -109 144 -32 213 -60 284 -116 80 -62 143 -256 169 -513
20 -201 16 -542 -10 -750 -28 -235 -43 -302 -87 -390 -47 -97 -59 -107 -142
-113 -81 -5 -121 11 -222 93 -156 127 -289 323 -520 765 -185 354 -328 646
-409 836 -79 186 -103 220 -194 268 -90 47 -109 48 -762 38 -679 -9 -663 -8
-725 -78 -44 -51 -42 -117 9 -243 232 -575 729 -1509 1092 -2053 203 -303 493
-694 671 -902 192 -225 494 -465 861 -685 225 -135 502 -239 793 -297 61 -13
170 -17 484 -21 433 -5 479 -2 555 42 97 56 114 101 125 335 14 280 71 457
182 570 64 66 125 95 180 86 115 -19 247 -123 443 -352 364 -424 536 -572 759
-655 137 -50 115 -49 791 -39 365 6 655 15 690 21 109 20 206 89 220 157 4 15
8 36 10 46 7 36 -23 172 -50 227 -44 85 -131 213 -239 349 -68 86 -231 256
-516 540 -473 472 -473 472 -474 610 -1 68 3 84 36 151 50 100 145 235 428
604 386 504 559 755 687 1001 86 164 124 270 130 364 8 115 -27 165 -147 206
-60 21 -118 21 -1164 8 -447 -5 -456 -6 -510 -77 -15 -20 -58 -109 -96 -200
-196 -468 -368 -790 -643 -1202 -145 -219 -289 -382 -413 -472 -45 -32 -54
-34 -101 -30 -62 6 -95 27 -132 81 -76 112 -85 197 -77 676 3 206 9 526 12
710 6 293 5 343 -10 400 -38 151 -98 221 -221 259 -172 53 -508 76 -930 64z"/>
</g>
</svg>
